<?xml version="1.0" encoding="UTF-8"?>
<svg version="1.1" xmlns="http://www.w3.org/2000/svg" width="64" height="64">
<path d="M0 0 C21.12 0 42.24 0 64 0 C64 21.12 64 42.24 64 64 C42.88 64 21.76 64 0 64 C0 42.88 0 21.76 0 0 Z " fill="#1F1F1F" transform="translate(0,0)"/>
<path d="M0 0 C4.98369498 3.14098423 8.46065719 6.73788649 11.26171875 11.90234375 C11.75671875 16.35734375 11.75671875 16.35734375 12.26171875 20.90234375 C4.67171875 20.90234375 -2.91828125 20.90234375 -10.73828125 20.90234375 C-10.73828125 28.16234375 -10.73828125 35.42234375 -10.73828125 42.90234375 C-18.46738922 42.90234375 -21.18070927 41.84587688 -26.73828125 36.90234375 C-31.51809661 30.88793153 -33.16295316 25.47133969 -33.08203125 17.82421875 C-32.36993765 11.77142318 -29.24761641 6.97184365 -24.73828125 2.96484375 C-17.53574633 -1.98689901 -8.26104623 -3.31148929 0 0 Z " fill="#F9F9F9" transform="translate(42.73828125,13.09765625)"/>
</svg>
